<svg t="1707124043635" class="icon" viewBox="0 0 1024 1024" version="1.1" xmlns="http://www.w3.org/2000/svg" p-id="1193" width="16" height="16"><path d="M514.5 511.5m-434.5 0a434.5 434.5 0 1 0 869 0 434.5 434.5 0 1 0-869 0Z" fill="#DB3131" p-id="1194"></path><path d="M770.83 604.78L756.47 400.1A136.66 136.66 0 0 0 620.14 273H404.86a136.66 136.66 0 0 0-136.33 127.1l-14.36 204.68A136.67 136.67 0 0 0 390.5 751h244a136.67 136.67 0 0 0 136.33-146.22zM653.47 423.33c0 77.73-63.24 141-141 141s-141-63.24-141-141v-15.45a26.67 26.67 0 1 1 53.33 0v15.45a87.64 87.64 0 1 0 175.28 0v-15.45a26.67 26.67 0 1 1 53.33 0z" fill="#FFFFFF" p-id="1195"></path></svg>